<?xml version="1.0" encoding="utf-8"?>
<!-- Generator: Adobe Illustrator 19.1.0, SVG Export Plug-In . SVG Version: 6.00 Build 0)  -->
<svg version="1.1" id="Layer_1" xmlns="http://www.w3.org/2000/svg" xmlns:xlink="http://www.w3.org/1999/xlink" x="0px" y="0px"
	 viewBox="0 0 540 960" style="enable-background:new 0 0 540 960;" xml:space="preserve">
<style type="text/css">
	.st0{fill:#50E3C2;stroke:#50E3C2;stroke-width:3;stroke-miterlimit:10;}
	.st1{fill:#50E3C2;}
</style>
<path class="st0" d="M194.8,500.3v-49h11.7c4.1,0,7.3,1.1,9.6,3.4c2.3,2.2,3.5,5.6,3.5,10c0,2.3-0.4,4.4-1.3,6.2
	c-0.8,1.8-2.1,3.2-3.8,4.1c2.1,0.6,3.6,1.9,4.6,3.9c1,2,1.5,4.4,1.5,7.1c0,4.7-1.1,8.2-3.3,10.7c-2.2,2.4-5.3,3.6-9.4,3.6H194.8z
	 M202.6,472h4.3c1.6,0,2.8-0.6,3.7-1.7c0.8-1.1,1.3-2.7,1.3-4.7c0-2.3-0.4-4-1.3-5c-0.9-1.1-2.2-1.6-4-1.6h-3.9V472z M202.6,478.7
	v14h5.5c1.6,0,2.9-0.6,3.7-1.7c0.8-1.1,1.2-2.8,1.2-5c0-2.3-0.3-4.1-1-5.4c-0.7-1.3-1.8-1.9-3.3-1.9H202.6z"/>
<path class="st0" d="M236.4,492.6H251v7.6h-22.3v-49h7.8V492.6z"/>
<path class="st0" d="M278.8,478.8h-13.4v13.9h15.7v7.6h-23.5v-49h23.5v7.6h-15.7v12.2h13.4V478.8z"/>
<path class="st0" d="M305.9,489.8h-10.5l-2.1,10.5h-7.8l11.2-49h8.1l11.2,49h-7.8L305.9,489.8z M297,482.2h7.3l-3.6-17.3h-0.2
	L297,482.2z"/>
<path class="st0" d="M333,479.9h-3.4v20.4h-7.8v-49h7.8v19.9h2.5l7.8-19.9h9.5l-10.9,22.4l11.8,26.6h-9.5L333,479.9z"/>
<path class="st1" d="M353.9,446.8c0-1.7,0.7-3.2,2-4.5c1.3-1.3,2.9-1.9,4.7-1.9c1.8,0,3.4,0.6,4.7,1.9c1.3,1.3,2,2.8,2,4.5
	c0,1.8-0.6,3.3-1.9,4.5c-1.3,1.2-2.9,1.8-4.7,1.8c-1.9,0-3.4-0.6-4.8-1.8C354.6,450.1,353.9,448.6,353.9,446.8z M357.7,446.8
	c0,0.9,0.3,1.6,0.9,2.1c0.6,0.6,1.3,0.9,2.1,0.9c0.8,0,1.5-0.3,2-0.9c0.6-0.6,0.8-1.3,0.8-2.2s-0.3-1.6-0.8-2.2
	c-0.6-0.6-1.2-0.9-2-0.9c-0.8,0-1.5,0.3-2.1,0.9C358,445.2,357.7,445.9,357.7,446.8z"/>
</svg>
